PathFileType	4	(X/Y/Z)	..\data\2014014\dynamic\2014014_C5_04.trc
DataRate	CameraRate	NumFrames	NumMarkers	Units	OrigDataRate	OrigDataStartFrame	OrigNumFrames
100.000000	100.000000	4	52	mm	100.000000	0	157
Frame#	Time	L_IAS			L_IPS			R_IPS			R_IAS			L_FTC			L_FLE			L_FME			L_FAX			L_TTC			L_FAL			L_TAM			L_FCC			L_FM1			L_FM2			L_FM5			R_FTC			R_FLE			R_FME			R_FAX			R_TTC			R_FAL			R_TAM			R_FCC			R_FM1			R_FM2			R_FM5			CV7			TV10			SXS			SJN			L_SIA			L_SRS			L_SAA			L_SAE			L_HLE			L_HME			L_UOA			L_RSP			L_UHE			L_HM2			L_HM5			R_SIA			R_SRS			R_SAA			R_SAE			R_HLE			R_HME			R_UOA			R_RSP			R_UHE			R_HM2			R_HM5			
		X1	Y1	Z1	X2	Y2	Z2	X3	Y3	Z3	X4	Y4	Z4	X5	Y5	Z5	X6	Y6	Z6	X7	Y7	Z7	X8	Y8	Z8	X9	Y9	Z9	X10	Y10	Z10	X11	Y11	Z11	X12	Y12	Z12	X13	Y13	Z13	X14	Y14	Z14	X15	Y15	Z15	X16	Y16	Z16	X17	Y17	Z17	X18	Y18	Z18	X19	Y19	Z19	X20	Y20	Z20	X21	Y21	Z21	X22	Y22	Z22	X23	Y23	Z23	X24	Y24	Z24	X25	Y25	Z25	X26	Y26	Z26	X27	Y27	Z27	X28	Y28	Z28	X29	Y29	Z29	X30	Y30	Z30	X31	Y31	Z31	X32	Y32	Z32	X33	Y33	Z33	X34	Y34	Z34	X35	Y35	Z35	X36	Y36	Z36	X37	Y37	Z37	X38	Y38	Z38	X39	Y39	Z39	X40	Y40	Z40	X41	Y41	Z41	X42	Y42	Z42	X43	Y43	Z43	X44	Y44	Z44	X45	Y45	Z45	X46	Y46	Z46	X47	Y47	Z47	X48	Y48	Z48	X49	Y49	Z49	X50	Y50	Z50	X51	Y51	Z51	X52	Y52	Z52	

1	0	-1286.122192382813	970.4171142578127	122.0359115600585	-1499.390502929688	988.3270263671877	175.5798492431639	-1507.9658203125	990.9260253906252	276.8654785156249	-1314.41650390625	967.4604492187502	375.1453857421874	-1347.449584960938	873.2862548828127	42.68017196655258	-1210.3759765625	490.5200805664064	103.086212158203	-1212.948608398438	482.3943786621095	242.222930908203	-1202.28271484375	431.4533691406251	99.75452423095692	-1133.289184570313	449.3697814941407	152.5709686279296	-1044.302124023438	86.79006195068361	121.0663681030272	-1033.6396484375	126.8329849243164	215.1682891845703	-1069.52197265625	20.37242317199707	181.6394958496093	-887.8216552734377	110.7002029418946	206.0307617187499	-892.931335449219	126.0715560913086	151.892852783203	-923.235778808594	83.46248626708986	99.1150360107421	-1403.273193359375	868.9461059570315	422.9304199218749	-1514.415405273438	479.2807006835939	329.6455688476561	-1464.816528320313	480.7860412597657	208.2552337646483	-1550.586303710938	434.3210449218751	329.8301391601561	-1484.369262695313	403.5672607421876	287.172149658203	-1687.45654296875	80.04295349121095	292.9416198730467	-1639.82470703125	104.4089050292969	203.1236114501952	-1725.974365234375	50.23706817626955	225.6254882812499	-1524.1474609375	21.35374641418457	219.8077697753905	-1522.880859375	36.55099105834962	278.2572021484374	-1573.30712890625	19.36363220214844	332.9266967773436	-1418.693969726563	1515.30859375	248.7878112792968	-1529.68017578125	1279.461181640625	237.1205291748045	-1255.536376953125	1227.4638671875	245.6288604736327	-1297.72705078125	1414.062622070313	255.8033599853514	-1550.369018554688	1312.398803710938	140.5718383789061	-1495.847534179688	1452.998168945313	142.873321533203	-1457.64697265625	1454.627197265625	80.48921966552717	-1407.747192382813	1448.257202148438	51.18647003173812	-1487.345947265625	1121.322875976563	-46.25482559204121	-1516.806884765625	1114.575805664063	42.8529739379881	-1527.602294921875	1109.5068359375	-13.59012126922626	-1465.14794921875	849.1074218750002	-16.93349075317401	-1537.325561523438	870.7185058593752	-67.13057708740254	-1460.15185546875	761.6245727539064	-36.091018676758	-1563.835815429688	790.5144042968752	-75.02460479736348	-1548.2861328125	1302.350708007813	358.9002075195311	-1487.953125	1440.482788085938	372.7841796874999	-1451.272827148438	1427.248657226563	440.4413757324218	-1404.287109375	1423.400756835938	460.6797790527343	-1401.4716796875	1094.43505859375	559.5604248046874	-1428.063720703125	1069.9013671875	461.9305114746093	-1441.635375976563	1062.097290039063	531.3827514648436	-1234.72509765625	887.5737304687502	503.6084899902343	-1293.516479492188	866.2839355468752	571.5604858398438	-1172.317138671875	814.883728027344	525.07958984375	-1268.9921875	773.5754394531252	569.1024169921875	
2	0.01	-1269.784057617188	969.1600341796877	121.8762130737303	-1483.07958984375	986.5765380859377	174.918731689453	-1492.049438476563	989.4033813476565	276.1375732421874	-1298.877807617188	966.0657958984377	375.200225830078	-1331.110961914063	871.792907714844	42.48505401611312	-1195.020874023438	489.084686279297	104.5731124877929	-1197.726684570313	481.5885620117189	243.821304321289	-1186.533081054688	430.0717773437501	101.3604736328124	-1117.875732421875	448.5428771972657	154.6440429687499	-1027.71142578125	86.35452270507814	123.6406860351562	-1017.681823730469	126.3365020751953	217.8104095458984	-1053.203369140625	20.11029624938965	183.9681701660155	-871.7876586914065	110.6768951416016	209.753921508789	-876.440856933594	125.7667770385742	155.479019165039	-906.3275146484377	82.96099853515626	102.7208938598632	-1388.3076171875	867.8064575195315	422.7042541503906	-1503.008911132813	479.4437561035157	330.5612182617186	-1452.87158203125	479.9212036132814	209.0990753173827	-1540.19482421875	435.1170959472657	330.6496276855468	-1474.372192382813	402.7070312500001	287.9642333984374	-1686.091186523438	83.86599731445314	293.4541931152342	-1637.471923828125	107.2335205078125	203.9083862304686	-1724.971801757813	55.52621078491212	225.9083557128905	-1523.804077148438	20.96174621582032	219.649688720703	-1522.491577148438	36.36171340942384	278.1041259765624	-1573.347290039063	19.11788177490235	332.5202026367186	-1404.322143554688	1513.62255859375	247.4644775390624	-1514.880249023438	1277.548461914063	236.4015808105467	-1240.361206054688	1226.248413085938	245.1000213623046	-1283.16748046875	1412.587768554688	254.6947937011718	-1535.76708984375	1310.122924804688	140.0218200683592	-1481.522583007813	1450.865234375	141.9613189697264	-1443.445068359375	1452.323120117188	79.45198059082016	-1393.373291015625	1445.95751953125	50.13029479980453	-1473.659790039063	1119.146362304688	-46.85746383667011	-1502.990600585938	1112.21533203125	42.53071594238263	-1513.712890625	1107.435302734375	-14.01556587219257	-1452.382446289063	846.882995605469	-17.91174697875995	-1524.6630859375	868.834655761719	-67.8262939453127	-1447.936645507813	759.3350830078126	-37.14518737792987	-1551.664306640625	788.772888183594	-75.51069641113301	-1533.525024414063	1300.665893554688	358.0407104492186	-1473.509765625	1439.079956054688	371.735626220703	-1436.759155273438	1426.011352539063	439.4034423828124	-1389.761840820313	1422.2763671875	459.6499938964843	-1387.316528320313	1093.609497070313	559.5135498046875	-1413.688598632813	1068.726928710938	461.8724365234374	-1427.414184570313	1061.093505859375	531.3611450195311	-1220.233764648438	886.8362426757815	504.4100646972656	-1279.203735351563	865.5704345703127	572.2421875	-1157.752685546875	814.3650512695315	526.3695068359375	-1254.518676757813	772.9483642578127	570.102294921875	
3	0.02	-1253.205810546875	968.2088623046877	121.6119842529296	-1466.572875976563	985.1939697265627	174.2290954589842	-1475.843017578125	988.161804199219	275.4203186035155	-1282.989868164063	964.9392089843752	375.1591186523436	-1314.461181640625	870.7469482421877	42.25541305541977	-1179.288208007813	487.9131774902345	105.6495895385741	-1181.989868164063	481.111541748047	244.8829040527343	-1170.829467773438	428.7765197753907	102.6125106811522	-1102.405883789063	447.4019165039064	156.2260589599608	-1013.784545898438	85.07673645019533	126.2995223999022	-1004.116333007813	124.9305267333985	220.5599365234374	-1040.179077148438	19.58362197875977	186.431900024414	-858.431335449219	108.3930969238282	213.6287078857421	-862.445251464844	123.2660903930664	159.1808013916015	-892.311706542969	80.55582427978517	106.4952392578124	-1373.015747070313	866.9412841796877	422.4209899902343	-1490.854248046875	479.650604248047	332.0427856445311	-1440.408325195313	478.9972534179689	210.4149932861327	-1529.108032226563	435.9885559082032	332.0724487304686	-1463.720092773438	401.8446044921876	289.3975524902343	-1684.355224609375	88.16572570800783	294.6167602539061	-1634.7685546875	110.4251785278321	205.334747314453	-1723.65234375	61.58605194091798	226.8665466308592	-1523.7119140625	20.55056762695313	219.4405059814452	-1522.261352539063	36.07886123657227	277.9261169433593	-1573.42431640625	18.65731620788575	332.1520690917968	-1389.90234375	1512.15673828125	246.0672760009764	-1499.90673828125	1275.779052734375	235.6251373291014	-1224.980590820313	1225.357177734375	244.4953613281249	-1268.521728515625	1411.394775390625	253.5138702392577	-1521.001953125	1308	139.3610687255858	-1467.116088867188	1448.925537109375	140.9654388427733	-1429.141723632813	1450.229125976563	78.32151794433578	-1378.958740234375	1443.896850585938	48.98009872436508	-1459.533447265625	1117.132568359375	-47.5741615295412	-1488.919311523438	1109.99658203125	42.09037780761701	-1499.393920898438	1105.530883789063	-14.60660743713398	-1438.899780273438	844.852722167969	-18.94275856018085	-1511.260009765625	867.061950683594	-68.62004089355489	-1434.890014648438	757.2463989257814	-38.27131271362323	-1538.654663085938	787.1121826171877	-76.11917114257832	-1518.636962890625	1299.126708984375	357.0761108398436	-1459.040161132813	1437.852783203125	370.5647888183593	-1422.248046875	1424.969116210938	438.2506713867187	-1375.24951171875	1421.368408203125	458.5281066894531	-1373.326782226563	1092.989013671875	559.2841796875	-1399.391723632813	1067.814819335938	461.6216125488281	-1413.35791015625	1060.352294921875	531.1278076171874	-1206.130981445313	886.072692871094	505.1578369140624	-1265.361938476563	864.9177856445315	572.8283081054688	-1143.698852539063	813.7147216796877	527.6098022460938	-1240.66015625	772.3424072265627	571.011474609375	
4	0.03	-1236.408081054688	967.5857543945315	121.2249298095702	-1449.890869140625	984.1760253906252	173.5036315917967	-1459.3564453125	987.1853027343752	274.7071228027343	-1266.757446289063	964.0709228515627	374.9906311035155	-1297.481201171875	870.176452636719	41.9746589660643	-1163.221801757813	487.0023498535157	106.3255081176757	-1165.8447265625	480.9114074707032	245.4237518310546	-1155.16162109375	427.590789794922	103.4918823242186	-1086.89501953125	445.9944763183595	157.3206024169921	-1002.169616699219	83.05053710937501	128.9232177734374	-992.647155761719	122.7104034423828	223.3039398193359	-1030.09423828125	18.86227416992188	188.8928833007812	-847.4412841796877	104.0081176757813	217.5747375488281	-850.6160888671877	118.7227783203125	162.9258575439452	-880.8442993164065	76.40269470214845	110.323143005371	-1357.382568359375	866.3258056640627	422.0624694824218	-1477.815185546875	479.8177490234376	334.1303405761718	-1427.281616210938	477.9341125488282	212.2571411132811	-1517.196655273438	436.8630371093751	334.1434936523436	-1452.286254882813	400.9176025390626	291.5341186523436	-1682.098388671875	92.96651458740236	296.4313659667967	-1631.562622070313	113.9872970581055	207.4074859619139	-1721.838500976563	68.46849822998048	228.4957885742186	-1523.911499023438	20.15543937683106	219.1807708740233	-1522.218017578125	35.69321823120118	277.7214355468749	-1573.554443359375	18.0377368927002	331.8295288085936	-1375.429809570313	1510.923583984375	244.5974121093749	-1484.7646484375	1274.167114257813	234.7929687499999	-1209.403564453125	1224.794555664063	243.8055114746093	-1253.788452148438	1410.491943359375	252.2620086669921	-1506.0693359375	1306.041870117188	138.5891113281249	-1452.6220703125	1447.189575195313	139.8812866210936	-1414.729736328125	1448.358764648438	77.09785461425766	-1364.492553710938	1442.08935546875	47.73862838745101	-1444.960693359375	1115.2939453125	-48.39731216430683	-1474.56689453125	1107.95166015625	41.5407752990721	-1484.642944335938	1103.797119140625	-15.34869861602802	-1424.68994140625	843.0233154296877	-20.02336120605487	-1497.119262695313	865.4060668945315	-69.49600219726582	-1420.99755859375	755.3643798828126	-39.46436691284197	-1524.808349609375	785.5402832031252	-76.84337615966817	-1503.62841796875	1297.740234375	356.007843017578	-1444.537963867188	1436.809814453125	369.276641845703	-1407.729858398438	1424.129760742188	436.9876403808593	-1360.740478515625	1420.683959960938	457.3180847167968	-1359.499389648438	1092.580200195313	558.8760375976562	-1385.17724609375	1067.171142578125	461.1849670410156	-1399.467651367188	1059.88623046875	530.6881713867186	-1192.419555664063	885.2934570312502	505.8430480957031	-1251.983032226563	864.3386840820315	573.3175048828125	-1130.155517578125	812.9434204101565	528.788330078125	-1227.40869140625	771.7679443359377	571.826904296875	
